<?xml version="1.0" encoding="utf-8"?>
<!-- Generator: Adobe Illustrator 27.8.1, SVG Export Plug-In . SVG Version: 6.00 Build 0)  -->
<svg version="1.1" id="Layer_1" xmlns="http://www.w3.org/2000/svg" xmlns:xlink="http://www.w3.org/1999/xlink" x="0px" y="0px"
	 viewBox="0 0 480 480" style="enable-background:new 0 0 480 480;" xml:space="preserve">
<style type="text/css">
	.st0{fill-rule:evenodd;clip-rule:evenodd;fill:url(#SVGID_1_);}
	.st1{fill-rule:evenodd;clip-rule:evenodd;fill:#FFFFFF;}
</style>
<linearGradient id="SVGID_1_" gradientUnits="userSpaceOnUse" x1="439.6814" y1="67.0091" x2="52.9013" y2="403.0586">
	<stop  offset="0" style="stop-color:#8D02FE"/>
	<stop  offset="1" style="stop-color:#2A02D2"/>
</linearGradient>
<path class="st0" d="M96.8,0.5h286.5c53.4,0,96.8,43.3,96.8,96.8v286.5c0,53.4-43.3,96.8-96.8,96.8H96.8C43.3,480.5,0,437.2,0,383.7
	V97.3C0,43.8,43.3,0.5,96.8,0.5z"/>
<path class="st1" d="M373,93.8c-45.6,6.4-89.2,19.8-133,33.6c0,16.1,0,32.1,0,48.2c-43.8,13.8-87.4,27.3-133,33.6
	c-12.4,13.8-25,27.4-38.1,40.6v101.4c12.4,12.2,25,24.1,38.1,35.6c45.6-6.4,89.2-19.8,133-33.6c0-16.1,0-32.1,0-48.2
	c43.8-13.8,87.4-27.3,133-33.6c12.4-13.8,25-27.4,38.1-40.6c0-33.8,0-67.6,0-101.4C398.7,117.2,386.1,105.2,373,93.8z M363.3,224.5
	c-42.1,7-82.7,19.4-123.3,32.3c0,16.1,0,32.1,0,48.2c-40.6,12.9-81.2,25.3-123.3,32.3c0-27.1,0-54.2,0-81.3
	c42.1-7,82.7-19.4,123.3-32.3v-48.2c40.6-12.9,81.2-25.3,123.3-32.3V224.5z"/>
</svg>
