<svg width="20" height="20" viewBox="0 0 20 20" fill="none" xmlns="http://www.w3.org/2000/svg">
<g clip-path="url(#clip0_6_1131)">
<path fill-rule="evenodd" clip-rule="evenodd" d="M11.0652 9.58757C11.2956 9.46974 11.5523 9.40744 11.8186 9.40744C12.2599 9.40744 12.6748 9.57877 12.9876 9.88989L13.6609 9.21667C15.327 9.80072 17.2541 9.42682 18.5861 8.09491C19.7068 6.97418 20.1488 5.4322 19.9129 3.97871C19.8869 3.81864 19.7735 3.68662 19.6193 3.63681C19.465 3.58693 19.2957 3.62746 19.181 3.74215L18.1813 4.74185C17.3672 5.55596 16.0472 5.55596 15.2331 4.74185C14.4189 3.92774 14.4189 2.60771 15.2331 1.79359L16.2328 0.793896C16.3475 0.679203 16.3883 0.509858 16.3384 0.355523C16.2885 0.20112 16.1563 0.0880638 15.9962 0.0620684C14.5427 -0.173869 13.0007 0.268121 11.88 1.38886C10.5283 2.74062 10.1645 4.70508 10.7862 6.38795L9.32593 7.8482L11.0652 9.58757ZM8.4044 12.2335L6.6724 10.5015L0.616018 16.5578C-0.171485 17.3453 -0.171485 18.6221 0.616018 19.4096C1.40352 20.1971 2.6803 20.1971 3.4678 19.4096L8.68878 14.1886C8.16218 13.6593 8.06728 12.86 8.4044 12.2335ZM11.8188 10.4308C11.9811 10.4308 12.1435 10.4928 12.2673 10.6166L18.2087 16.5579C18.9962 17.3454 18.9962 18.6221 18.2087 19.4097C17.4212 20.1972 16.1444 20.1972 15.3569 19.4097L9.41554 13.4683C9.1678 13.2206 9.1678 12.819 9.41554 12.5712L9.80254 12.1842L3.36223 5.74393L3.06121 6.04503C2.78672 6.31958 2.33211 6.28519 2.1019 5.97263L0.16678 3.34499C-0.0191446 3.09254 0.00726019 2.74204 0.229006 2.5203L1.34469 1.40454C1.56644 1.1828 1.91686 1.15639 2.16938 1.34232L4.79703 3.27751C5.10966 3.50771 5.1437 3.9626 4.86942 4.23681L4.56839 4.53784L11.0087 10.9781L11.3702 10.6166C11.4941 10.4928 11.6565 10.4308 11.8188 10.4308Z" fill="#515457"/>
</g>
<defs>
<clipPath id="clip0_6_1131">
<rect width="20" height="20" fill="white"/>
</clipPath>
</defs>
</svg>
