<svg width="20" height="15" viewBox="0 0 20 15" fill="none" xmlns="http://www.w3.org/2000/svg">
<path fill-rule="evenodd" clip-rule="evenodd" d="M9.00743 9.01383C9.38366 9.19672 11.2178 10.1216 12.9213 11.522C13.2296 11.7728 13.4072 12.1543 13.4072 12.5514V14.4326H6.72393H0.0354004V12.5514C0.0354004 12.1543 0.213064 11.7728 0.521363 11.522C2.22485 10.1268 4.05897 9.19672 4.4352 9.01383C4.477 8.99293 4.50313 8.95113 4.50313 8.9041V6.25482C4.1687 6.03535 3.94923 5.65389 3.94923 5.22541V2.47684C3.94923 1.10779 5.05702 0 6.42608 0H6.72393H7.01655C8.38561 0 9.49339 1.10779 9.49339 2.47684V5.22541C9.49339 5.65389 9.27392 6.03012 8.9395 6.25482V8.9041C8.9395 8.95113 8.96563 8.99293 9.00743 9.01383ZM15.7587 7.56117C16.0722 7.71271 17.6137 8.49129 19.0402 9.66701C19.3015 9.87603 19.4478 10.1948 19.4635 10.5292V12.1073H14.3948C14.2903 11.5743 14.0081 11.0883 13.5797 10.7382C12.3621 9.73494 11.0715 8.96158 10.2563 8.51219C11.0715 7.98965 11.7403 7.65523 11.9337 7.56117C11.9702 7.54027 11.9911 7.50891 11.9911 7.46711V5.24631C11.709 5.0582 11.5261 4.73945 11.5261 4.37889V2.07449C11.5261 0.930123 12.4562 0 13.6006 0H13.8462H14.0918C15.2361 0 16.1662 0.930123 16.1662 2.07449V4.37889C16.1662 4.74467 15.9781 5.0582 15.7012 5.24631V7.46711C15.7012 7.50891 15.7221 7.54549 15.7587 7.56117Z" fill="#515457"/>
</svg>
