<svg width="18" height="18" viewBox="0 0 18 18" fill="none" xmlns="http://www.w3.org/2000/svg">
<path d="M12.7266 0H1.93359C0.86741 0 0 0.86741 0 1.93359V2.8125H12.7266V0Z" fill="#515457"/>
<path d="M16.0664 0H13.7812V2.8125H18V1.93359C18 0.86741 17.1326 0 16.0664 0Z" fill="#515457"/>
<path d="M8.12109 8.56055L4.95703 9.87891V11.2852L8.12109 12.6035V8.56055Z" fill="#515457"/>
<path d="M3.375 11.1094H3.90234V10.0547H3.375C3.08422 10.0547 2.84766 10.2913 2.84766 10.582C2.84766 10.8728 3.08422 11.1094 3.375 11.1094Z" fill="#515457"/>
<path d="M0 16.0664C0 17.1326 0.86741 18 1.93359 18H16.0664C17.1326 18 18 17.1326 18 16.0664V3.86719H0V16.0664ZM11.4609 7.94531H15.6797C15.9709 7.94531 16.207 8.18142 16.207 8.47266C16.207 8.76389 15.9709 9 15.6797 9H11.4609C11.1697 9 10.9336 8.76389 10.9336 8.47266C10.9336 8.18142 11.1697 7.94531 11.4609 7.94531ZM11.4609 10.0547H15.6797C15.9709 10.0547 16.207 10.2908 16.207 10.582C16.207 10.8733 15.9709 11.1094 15.6797 11.1094H11.4609C11.1697 11.1094 10.9336 10.8733 10.9336 10.582C10.9336 10.2908 11.1697 10.0547 11.4609 10.0547ZM11.4609 12.1641H15.6797C15.9709 12.1641 16.207 12.4002 16.207 12.6914C16.207 12.9826 15.9709 13.2188 15.6797 13.2188H11.4609C11.1697 13.2188 10.9336 12.9826 10.9336 12.6914C10.9336 12.4002 11.1697 12.1641 11.4609 12.1641ZM3.375 9H4.32422L8.12109 7.41797V7.24219C8.12109 6.95095 8.3572 6.71484 8.64844 6.71484C8.93967 6.71484 9.17578 6.95095 9.17578 7.24219V13.9219C9.17578 14.2131 8.93967 14.4492 8.64844 14.4492C8.3572 14.4492 8.12109 14.2131 8.12109 13.9219V13.7461L4.95703 12.4277V14.625C4.95703 14.9162 4.72092 15.1523 4.42969 15.1523C4.13845 15.1523 3.90234 14.9162 3.90234 14.625V12.1641H3.375C2.50267 12.1641 1.79297 11.4544 1.79297 10.582C1.79297 9.7097 2.50267 9 3.375 9Z" fill="#515457"/>
</svg>
