<?xml version="1.0" encoding="UTF-8"?>
<svg width="1104px" height="327px" viewBox="0 0 1104 327" version="1.1" xmlns="http://www.w3.org/2000/svg" xmlns:xlink="http://www.w3.org/1999/xlink">
    <title>Artboard</title>
    <g id="Artboard" stroke="none" stroke-width="1" fill="none" fill-rule="evenodd">
        <path d="M312.857123,223.503047 L312.857123,271.277533 L292.092451,271.277533 L292.092451,229.815048 C292.092451,221.926293 287.112949,216.61617 279.433678,216.61617 C271.469439,216.61617 265.921652,222.069181 265.921652,230.104147 L265.921652,271.277533 L245.155333,271.277533 L245.155333,229.815048 C245.155333,221.926293 240.179125,216.61617 232.496559,216.61617 C224.532321,216.61617 218.984533,222.069181 218.984533,230.104147 L218.984533,271.277533 L198.219861,271.277533 L198.219861,198.110494 L218.984533,198.110494 L218.984533,205.138597 C224.247354,199.401471 231.21668,196.38919 239.607545,196.38919 C249.423242,196.38919 257.244173,200.549561 261.797049,207.722214 C267.628156,200.262123 275.877361,196.38919 285.976378,196.38919 C302.333128,196.38919 312.857123,207.149 312.857123,223.503047" id="Fill-1" fill="#F2F2F0"></path>
        <path d="M346.001367,227.664415 L378.57156,227.664415 C376.296769,219.486561 370.039036,214.463876 362.21481,214.463876 C354.392232,214.463876 348.134498,219.629449 346.001367,227.664415 M400.189484,241.579395 L346.143027,241.579395 C348.702784,249.757249 355.67211,254.779933 364.776215,254.779933 C373.023772,254.779933 379.566472,250.905338 382.981129,246.602079 L396.919781,258.795755 C389.24051,267.548485 377.576648,272.999834 364.207929,272.999834 C341.165172,272.999834 323.811863,256.356687 323.811863,234.263854 C323.811863,212.744234 340.453579,196.388525 362.49813,196.388525 C384.261008,196.388525 400.619405,212.744234 400.619405,234.979956 C400.619405,236.990359 400.476098,239.715203 400.189484,241.579395" id="Fill-3" fill="#F2F2F0"></path>
        <path d="M410.007158,234.693847 C410.007158,212.88679 426.647227,196.389854 448.693425,196.389854 C463.058703,196.389854 475.289204,203.562507 481.835198,214.752643 L471.166248,221.209194 C466.75668,213.460004 458.509122,208.296093 448.693425,208.296093 C433.75986,208.296093 422.665932,219.629116 422.665932,234.693847 C422.665932,249.758578 433.75986,261.091602 448.693425,261.091602 C458.509122,261.091602 466.75668,255.927691 471.166248,248.178501 L481.835198,254.636713 C475.289204,265.825187 463.058703,272.999502 448.693425,272.999502 C426.647227,272.999502 410.007158,256.500905 410.007158,234.693847" id="Fill-5" fill="#F2F2F0"></path>
        <path d="M555.795545,234.693847 C555.795545,219.629116 544.701617,208.296093 529.909712,208.296093 C514.976148,208.296093 503.882219,219.629116 503.882219,234.693847 C503.882219,249.758578 514.976148,261.091602 529.909712,261.091602 C544.701617,261.091602 555.795545,249.758578 555.795545,234.693847 M491.223445,234.693847 C491.223445,212.88679 507.863515,196.389854 529.909712,196.389854 C551.81425,196.389854 568.454319,212.88679 568.454319,234.693847 C568.454319,256.500905 551.81425,272.999502 529.909712,272.999502 C507.863515,272.999502 491.223445,256.500905 491.223445,234.693847" id="Fill-7" fill="#F2F2F0"></path>
        <path d="M652.371859,226.085667 L652.371859,271.278198 L640.139711,271.278198 L640.139711,229.9586 C640.139711,216.904273 631.890506,208.296093 618.948413,208.296093 C605.5764,208.296093 596.758909,217.047161 596.758909,230.2477 L596.758909,271.278198 L584.526761,271.278198 L584.526761,198.109497 L596.758909,198.109497 L596.758909,209.301294 C602.448357,200.97889 611.550814,196.389854 622.929709,196.389854 C640.566337,196.389854 652.371859,208.151543 652.371859,226.085667" id="Fill-9" fill="#F2F2F0"></path>
        <path d="M680.534789,228.95506 L730.459938,228.95506 C728.1835,216.329397 718.227791,207.721217 705.42571,207.721217 C692.766936,207.721217 682.812874,216.473947 680.534789,228.95506 M743.118712,240.145196 L680.676449,240.145196 C683.096193,252.913748 693.476882,261.666478 707.560488,261.666478 C718.227791,261.666478 727.330248,256.500905 732.024783,249.758578 L740.415648,257.074119 C733.161355,266.830389 721.214174,272.999502 707.133862,272.999502 C684.376072,272.999502 667.449389,256.356355 667.449389,234.406409 C667.449389,212.743902 683.807786,196.389854 705.56737,196.389854 C727.188588,196.389854 743.403679,212.743902 743.403679,234.693847 C743.403679,236.416812 743.260372,238.423893 743.118712,240.145196" id="Fill-11" fill="#F2F2F0"></path>
        <path d="M754.355618,234.693847 C754.355618,212.88679 770.997335,196.389854 793.045179,196.389854 C807.408811,196.389854 819.640958,203.562507 826.183658,214.752643 L815.514708,221.209194 C811.108434,213.460004 802.857582,208.296093 793.045179,208.296093 C778.10832,208.296093 767.014392,219.629116 767.014392,234.693847 C767.014392,249.758578 778.10832,261.091602 793.045179,261.091602 C802.857582,261.091602 811.108434,255.927691 815.514708,248.178501 L826.183658,254.636713 C819.640958,265.825187 807.408811,272.999502 793.045179,272.999502 C770.997335,272.999502 754.355618,256.500905 754.355618,234.693847" id="Fill-13" fill="#F2F2F0"></path>
        <path d="M860.17819,209.300796 L860.17819,249.75808 C860.17819,257.648496 864.442804,261.092765 871.842051,261.092765 C875.8217,261.092765 878.953037,259.943014 881.937773,258.36626 L881.937773,269.986722 C878.241444,271.995463 874.400161,273.000665 869.279,273.000665 C855.200335,273.000665 847.946042,265.251475 847.946042,251.766821 L847.946042,209.300796 L834.860642,209.300796 L834.860642,198.11066 L847.946042,198.11066 L847.946042,178.455232 L860.17819,178.455232 L860.17819,198.11066 L881.937773,198.11066 L881.937773,209.300796 L860.17819,209.300796 Z" id="Fill-15" fill="#F2F2F0"></path>
        <path d="M903.132201,228.95506 L953.05735,228.95506 C950.780912,216.329397 940.825203,207.721217 928.023122,207.721217 C915.364348,207.721217 905.410286,216.473947 903.132201,228.95506 M965.716124,240.145196 L903.273861,240.145196 C905.693605,252.913748 916.074294,261.666478 930.1579,261.666478 C940.825203,261.666478 949.92766,256.500905 954.622195,249.758578 L963.01306,257.074119 C955.758767,266.830389 943.811586,272.999502 929.731274,272.999502 C906.973484,272.999502 890.046801,256.356355 890.046801,234.406409 C890.046801,212.743902 906.405198,196.389854 928.164782,196.389854 C949.786,196.389854 966.001091,212.743902 966.001091,234.693847 C966.001091,236.416812 965.857784,238.423893 965.716124,240.145196" id="Fill-18" fill="#F2F2F0"></path>
        <path d="M981.64493,271.277035 L993.877078,271.277035 L993.877078,198.109995 L981.64493,198.109995 L981.64493,271.277035 Z M979.511799,175.299398 C979.511799,170.564151 983.069763,167.121543 987.761004,167.121543 C992.312232,167.121543 995.870196,170.564151 995.870196,175.299398 C995.870196,179.890095 992.312232,183.47559 987.761004,183.47559 C983.069763,183.47559 979.511799,179.890095 979.511799,175.299398 L979.511799,175.299398 Z" id="Fill-20" fill="#F2F2F0"></path>
        <path d="M253.010196,51 C226.325469,54.7616136 200.774018,62.6869214 175.155032,70.8631142 L175.155032,70.8631142 C175.153385,80.3419152 175.153385,89.8223777 175.153385,99.3028402 L175.153385,99.3028402 C149.534399,107.477372 123.982948,115.402679 97.2998671,119.165954 L97.2998671,119.165954 C90.0406328,127.328855 82.6380916,135.323946 75,143.126303 L75,143.126303 L75,203.016375 C82.2460567,210.232227 89.633773,217.276945 97.2998671,224.040871 L97.2998671,224.040871 C123.982948,220.279258 149.534399,212.35395 175.155032,204.177757 L175.155032,204.177757 C175.155032,194.697294 175.155032,185.216832 175.155032,175.736369 L175.155032,175.736369 C200.774018,167.561838 226.325469,159.63653 253.010196,155.876578 L253.010196,155.876578 C260.267784,147.712016 267.671972,139.716925 275.310064,131.914568 L275.310064,131.914568 C275.310064,111.950103 275.310064,91.9872993 275.310064,72.0244958 L275.310064,72.0244958 C268.065654,64.8103057 260.687821,57.7473113 253.010196,51 Z M102.951429,146.814811 C127.61833,142.6993 151.361149,135.335576 175.153385,127.744228 L175.153385,127.744228 L175.153385,99.3028402 C198.94562,91.711492 222.690086,84.3461064 247.356987,80.2322569 L247.356987,80.2322569 L247.356987,128.22606 C222.690086,132.339909 198.94562,139.703634 175.153385,147.294982 L175.153385,147.294982 C175.153385,156.775444 175.153385,166.255907 175.155032,175.736369 L175.155032,175.736369 C151.361149,183.329379 127.61833,190.691442 102.951429,194.806953 L102.951429,194.806953 C102.951429,178.810126 102.951429,162.811638 102.951429,146.814811 L102.951429,146.814811 Z" id="Fill-25" fill="#F2F2F0"></path>
    </g>
</svg>