<svg width="20" height="20" viewBox="0 0 20 20" fill="none" xmlns="http://www.w3.org/2000/svg">
<g clip-path="url(#clip0_6_1145)">
<path fill-rule="evenodd" clip-rule="evenodd" d="M0.178223 4.375C0.178223 1.9625 2.14072 0 4.55322 0C6.96572 0 8.92822 1.9625 8.92822 4.375C8.92822 6.62 5.41822 10.5962 5.01822 11.0425C4.89947 11.1737 4.73072 11.25 4.55322 11.25C4.37572 11.25 4.20697 11.1737 4.08822 11.0425C3.68822 10.5962 0.178223 6.62 0.178223 4.375ZM2.67822 4.375C2.67822 5.41 3.51822 6.25 4.55322 6.25C5.58822 6.25 6.42822 5.41 6.42822 4.375C6.42822 3.34 5.58822 2.5 4.55322 2.5C3.51822 2.5 2.67822 3.34 2.67822 4.375ZM15.4545 7.93875C15.372 7.6775 15.1307 7.5 14.857 7.5H9.15196C8.11446 9.37875 6.57945 11.175 5.9482 11.8775C5.5932 12.2725 5.08446 12.5 4.55321 12.5C4.02196 12.5 3.5132 12.2725 3.1582 11.8775C2.91445 11.6062 2.53696 11.1725 2.10446 10.635L0.591955 17.4425C0.536955 17.6938 0.640705 17.9525 0.853205 18.0963C0.958205 18.1675 1.08071 18.2025 1.20196 18.2025C1.32696 18.2025 1.45071 18.1663 1.55821 18.0912L15.212 8.6375C15.4382 8.48375 15.5345 8.2 15.4545 7.93875ZM17.9571 9.30775L19.8071 17.6365C19.8596 17.8752 19.7683 18.1215 19.5746 18.269C19.4633 18.3552 19.3295 18.3978 19.1958 18.3978C19.0958 18.3978 18.9958 18.3727 18.9033 18.324L11.0383 14.159C10.8458 14.0577 10.7196 13.8627 10.7071 13.644C10.6933 13.4277 10.7946 13.219 10.9746 13.094L16.9908 8.929C17.1608 8.8115 17.3796 8.78525 17.5746 8.8615C17.7683 8.93775 17.9121 9.104 17.9571 9.30775ZM9.30826 14.6588L17.1745 18.8238C17.427 18.9575 17.557 19.2463 17.487 19.525C17.4183 19.805 17.167 20 16.8808 20H2.99951C2.72701 20 2.48451 19.8213 2.40451 19.5625C2.32201 19.3013 2.41951 19.0175 2.64451 18.8612L8.65951 14.6963C8.85326 14.565 9.10326 14.55 9.30826 14.6588Z" fill="#515457"/>
</g>
<defs>
<clipPath id="clip0_6_1145">
<rect width="20" height="20" fill="white"/>
</clipPath>
</defs>
</svg>
