<svg width="48" height="48" viewBox="0 0 48 48" fill="none" xmlns="http://www.w3.org/2000/svg">
<rect opacity="0.149399" width="47.8556" height="47.8556" rx="4.78556" fill="#99A9E3"/>
<g clip-path="url(#clip0_701_4)">
<path d="M27.5604 15.1543H17.039C15.9996 15.1543 15.1541 15.9999 15.1541 17.0392V17.896H27.5604V15.1543Z" fill="#4017E4"/>
<path d="M30.8163 15.1543H28.5886V17.896H32.7012V17.0392C32.7012 15.9999 31.8556 15.1543 30.8163 15.1543Z" fill="#4017E4"/>
<path d="M23.0708 23.4994L19.9863 24.7846V26.1554L23.0708 27.4406V23.4994Z" fill="#4017E4"/>
<path d="M18.444 25.9841H18.9581V24.9559H18.444C18.1605 24.9559 17.9299 25.1865 17.9299 25.47C17.9299 25.7535 18.1605 25.9841 18.444 25.9841Z" fill="#4017E4"/>
<path d="M15.1541 30.8164C15.1541 31.8558 15.9996 32.7014 17.039 32.7014H30.8162C31.8555 32.7014 32.7011 31.8558 32.7011 30.8164V18.9242H15.1541V30.8164ZM26.3266 22.8997H30.4392C30.7231 22.8997 30.9533 23.1299 30.9533 23.4138C30.9533 23.6977 30.7231 23.9278 30.4392 23.9278H26.3266C26.0427 23.9278 25.8125 23.6977 25.8125 23.4138C25.8125 23.1299 26.0427 22.8997 26.3266 22.8997ZM26.3266 24.956H30.4392C30.7231 24.956 30.9533 25.1862 30.9533 25.4701C30.9533 25.754 30.7231 25.9841 30.4392 25.9841H26.3266C26.0427 25.9841 25.8125 25.754 25.8125 25.4701C25.8125 25.1862 26.0427 24.956 26.3266 24.956ZM26.3266 27.0123H30.4392C30.7231 27.0123 30.9533 27.2425 30.9533 27.5264C30.9533 27.8103 30.7231 28.0404 30.4392 28.0404H26.3266C26.0427 28.0404 25.8125 27.8103 25.8125 27.5264C25.8125 27.2425 26.0427 27.0123 26.3266 27.0123ZM18.4441 23.9278H19.3695L23.0708 22.3856V22.2143C23.0708 21.9304 23.301 21.7002 23.5849 21.7002C23.8688 21.7002 24.0989 21.9304 24.0989 22.2143V28.7259C24.0989 29.0098 23.8688 29.2399 23.5849 29.2399C23.301 29.2399 23.0708 29.0098 23.0708 28.7259V28.5545L19.9863 27.2693V29.4113C19.9863 29.6952 19.7562 29.9254 19.4723 29.9254C19.1884 29.9254 18.9582 29.6952 18.9582 29.4113V27.0123H18.4441C17.5937 27.0123 16.9019 26.3205 16.9019 25.4701C16.9019 24.6197 17.5937 23.9278 18.4441 23.9278Z" fill="#4017E4"/>
</g>
<defs>
<clipPath id="clip0_701_4">
<rect width="17.5471" height="17.5471" fill="white" transform="translate(15.1541 15.1543)"/>
</clipPath>
</defs>
</svg>
