<svg width="21" height="18" viewBox="0 0 21 18" fill="none" xmlns="http://www.w3.org/2000/svg">
<path d="M4.61973 7.44978V10.3342C4.61973 10.8127 4.2309 11.2022 3.7518 11.2022H0.867936C0.388835 11.2022 0 10.8127 0 10.3342V7.44978C0 6.9701 0.388835 6.58185 0.867936 6.58185H3.7518C4.2309 6.58185 4.61973 6.97126 4.61973 7.44978ZM20.1315 6.58185H7.68933H7.23743C6.75891 6.58185 6.36949 6.9701 6.36949 7.44978V10.3342C6.36949 10.8127 6.75891 11.2022 7.23743 11.2022H7.68933H20.1321C20.6112 11.2022 21 10.8127 21 10.3342V7.44978C20.9994 6.97126 20.6112 6.58185 20.1315 6.58185ZM3.7518 0H0.867936C0.388835 0 0 0.388257 0 0.867936V3.75238C0 4.23206 0.388835 4.62031 0.867936 4.62031H3.7518C4.2309 4.62031 4.61973 4.23206 4.61973 3.75238V0.867936C4.61973 0.389414 4.2309 0 3.7518 0ZM20.1315 0H7.68933H7.23743C6.75891 0 6.36949 0.388257 6.36949 0.867936V3.75238C6.36949 4.23206 6.75891 4.62031 7.23743 4.62031H7.68933H20.1321C20.6112 4.62031 21 4.23206 21 3.75238V0.867936C20.9994 0.389414 20.6112 0 20.1315 0ZM3.7518 13.1643H0.867936C0.388835 13.1643 0 13.5525 0 14.0322V16.9161C0 17.3963 0.388835 17.784 0.867936 17.784H3.7518C4.2309 17.784 4.61973 17.3963 4.61973 16.9161V14.0322C4.61973 13.5525 4.2309 13.1643 3.7518 13.1643ZM20.1315 13.1643H7.68933H7.23743C6.75891 13.1643 6.36949 13.5525 6.36949 14.0322V16.9161C6.36949 17.3963 6.75891 17.784 7.23743 17.784H7.68933H20.1321C20.6112 17.784 21 17.3963 21 16.9161V14.0322C20.9994 13.5525 20.6112 13.1643 20.1315 13.1643Z" fill="#515457"/>
</svg>
