<svg width="48" height="48" viewBox="0 0 48 48" fill="none" xmlns="http://www.w3.org/2000/svg">
<rect opacity="0.149399" width="47.8556" height="47.8556" rx="4.78556" fill="#34CBA7"/>
<path fill-rule="evenodd" clip-rule="evenodd" d="M22.2426 20.2571L19.4912 17.3992L12.8738 24.1245L11.9639 23.2299L19.5008 15.5698L22.279 18.4552L27.0582 13.8789L25.6889 12.5103H29.264V16.0841L27.9604 14.7812L22.2426 20.2571ZM15.13 29.5788H19.437V23.5171H15.13V29.5788ZM23.1828 29.5788H21.1119V21.6029H25.4189V23.8388C24.0195 25.0166 23.1303 26.7812 23.1303 28.7534C23.1303 29.0331 23.1481 29.3086 23.1828 29.5788ZM31.4009 22.6033V17.6149H27.0939V22.8197C27.8507 22.5059 28.6806 22.3328 29.5509 22.3328C30.194 22.3328 30.8151 22.4274 31.4009 22.6033Z" fill="#208069"/>
<path fill-rule="evenodd" clip-rule="evenodd" d="M24.2468 28.7535C24.2468 25.8243 26.6216 23.4495 29.5508 23.4495C32.48 23.4495 34.8548 25.8243 34.8548 28.7535C34.8548 31.6827 32.48 34.0575 29.5508 34.0575C26.6216 34.0575 24.2468 31.6827 24.2468 28.7535ZM30.1903 31.412C30.5417 31.316 30.8429 31.1261 31.0743 30.8445C31.7138 30.0674 31.4694 28.9259 30.5701 28.4239C30.3103 28.2811 30.0379 28.1689 29.7643 28.0563C29.7368 28.0449 29.7093 28.0336 29.6817 28.0222C29.5093 27.9502 29.3412 27.8673 29.195 27.7494C28.9047 27.518 28.9592 27.1426 29.2997 26.9942C29.3958 26.9527 29.4962 26.9396 29.5988 26.9331C29.6424 26.9309 29.6883 26.9287 29.7319 26.9287C30.0768 26.9287 30.4064 27.0029 30.7207 27.1557C30.7818 27.1863 30.8298 27.2015 30.8691 27.2015C30.939 27.2015 30.9761 27.147 31.0154 27.0291C31.0603 26.8862 31.1017 26.741 31.143 26.5961C31.1579 26.5439 31.1728 26.4918 31.1878 26.4398C31.2271 26.3066 31.1791 26.2193 31.0546 26.1647C30.8276 26.0643 30.5941 25.9923 30.3474 25.953C30.1867 25.9279 30.1065 25.9153 30.0662 25.8685C30.026 25.8218 30.0255 25.741 30.0244 25.5798L30.0244 25.5795C30.0222 25.141 30.0221 25.1236 29.6162 25.1236H29.566H29.4416H29.3674C29.1535 25.1301 29.1186 25.1672 29.112 25.3812C29.1088 25.4549 29.1092 25.5273 29.1096 25.5995C29.1097 25.6235 29.1098 25.6475 29.1098 25.6715C29.1098 25.9523 29.1077 25.953 28.8432 26.0482L28.8348 26.0512C28.1735 26.2913 27.7653 26.741 27.7216 27.4613C27.6824 28.0986 28.0141 28.5286 28.538 28.8429C28.7606 28.9768 28.9987 29.0723 29.2375 29.1681C29.3451 29.2112 29.453 29.2545 29.5595 29.3013C29.6926 29.3602 29.8214 29.4279 29.9327 29.5196C30.2623 29.7902 30.2012 30.2421 29.8105 30.4123C29.6555 30.48 29.4962 30.5105 29.3325 30.5105C29.2736 30.5105 29.2146 30.5062 29.1557 30.4996C28.8043 30.456 28.4703 30.3643 28.156 30.2006C28.0883 30.1657 28.0381 30.146 27.9988 30.146C27.9312 30.146 27.8941 30.2028 27.8548 30.3294C27.8002 30.5018 27.7522 30.6764 27.7042 30.851C27.6409 31.0868 27.6649 31.1413 27.8875 31.2505C28.1713 31.388 28.4769 31.4578 28.7868 31.508C29.0291 31.5473 29.0378 31.5561 29.04 31.8092C29.04 31.9227 29.04 32.0384 29.0422 32.1519C29.0422 32.296 29.112 32.3811 29.2605 32.3833C29.339 32.3855 29.4175 32.3855 29.4961 32.3855H29.4962C29.5857 32.3855 29.6752 32.3833 29.7647 32.3811C29.9022 32.3768 29.9742 32.3025 29.9742 32.1628C29.9748 32.1234 29.9756 32.084 29.9764 32.0447C29.9789 31.9277 29.9813 31.8112 29.9764 31.6936C29.9677 31.5342 30.0375 31.4535 30.1903 31.412Z" fill="#208069"/>
</svg>
