<svg width="48" height="48" viewBox="0 0 48 48" fill="none" xmlns="http://www.w3.org/2000/svg">
<rect opacity="0.149399" width="47.8556" height="47.8556" rx="4.78556" fill="#E41743"/>
<path d="M29.1211 14.7607C28.9318 14.4334 28.5794 14.2301 28.2016 14.2301H24.2527V18.9011H31.5158L29.1211 14.7607Z" fill="#515457"/>
<path d="M29.1211 14.7607C28.9318 14.4334 28.5794 14.2301 28.2016 14.2301H24.2527V18.9011H31.5158L29.1211 14.7607Z" fill="#E41743"/>
<path d="M23.1458 14.2301H19.1596C18.7811 14.2301 18.4287 14.4338 18.2394 14.7618L15.8535 18.9011H23.1457V14.2301H23.1458Z" fill="#515457"/>
<path d="M23.1458 14.2301H19.1596C18.7811 14.2301 18.4287 14.4338 18.2394 14.7618L15.8535 18.9011H23.1457V14.2301H23.1458Z" fill="#E41743"/>
<path fill-rule="evenodd" clip-rule="evenodd" d="M15.4573 31.8138V20.0082H31.9037V31.8138C31.9037 32.5315 31.3196 33.1152 30.6019 33.1152H16.759C16.0414 33.1152 15.4573 32.5315 15.4573 31.8138ZM23.3301 27.8354L26.1927 24.9728C26.409 24.7566 26.409 24.4064 26.1928 24.1902C25.9769 23.974 25.6264 23.974 25.4101 24.1902L22.9387 26.6617L21.9885 25.7111C21.7723 25.4949 21.4218 25.4949 21.2055 25.7111C20.9897 25.9274 20.9897 26.2779 21.2055 26.4938L22.5475 27.8354C22.6553 27.9435 22.797 27.9978 22.9386 27.9978C23.0803 27.9978 23.222 27.9435 23.3301 27.8354Z" fill="#515457"/>
<path fill-rule="evenodd" clip-rule="evenodd" d="M15.4573 31.8138V20.0082H31.9037V31.8138C31.9037 32.5315 31.3196 33.1152 30.6019 33.1152H16.759C16.0414 33.1152 15.4573 32.5315 15.4573 31.8138ZM23.3301 27.8354L26.1927 24.9728C26.409 24.7566 26.409 24.4064 26.1928 24.1902C25.9769 23.974 25.6264 23.974 25.4101 24.1902L22.9387 26.6617L21.9885 25.7111C21.7723 25.4949 21.4218 25.4949 21.2055 25.7111C20.9897 25.9274 20.9897 26.2779 21.2055 26.4938L22.5475 27.8354C22.6553 27.9435 22.797 27.9978 22.9386 27.9978C23.0803 27.9978 23.222 27.9435 23.3301 27.8354Z" fill="#E41743"/>
</svg>
