<svg width="48" height="49" viewBox="0 0 48 49" fill="none" xmlns="http://www.w3.org/2000/svg">
<rect opacity="0.149399" y="0.450928" width="47.8556" height="47.8556" rx="4.78556" fill="#A6BCD0"/>
<g clip-path="url(#clip0_701_5)">
<path d="M27.6358 19.1854C27.6358 18.9739 27.8196 18.7355 28.0442 18.6555L33.2405 16.8072C33.4652 16.7273 33.6489 16.8349 33.6489 17.0465V33.3641C33.6489 33.5755 33.4652 33.8139 33.2405 33.8939L28.0442 35.7423C27.8196 35.8222 27.6358 35.7145 27.6358 35.503V19.1854Z" fill="#A6BCD0"/>
<path d="M20.818 17.0471C20.818 16.8357 21.0017 16.728 21.2264 16.8079L26.4226 18.6563C26.6473 18.7362 26.8311 18.9747 26.8311 19.186V35.5038C26.8311 35.7152 26.6473 35.8229 26.4226 35.743L21.2264 33.8947C21.0017 33.8147 20.818 33.5762 20.818 33.3648V17.0471Z" fill="#A6BCD0"/>
<path d="M14 19.1861C14 18.9746 14.1837 18.7363 14.4084 18.6563L19.6048 16.8079C19.8294 16.728 20.0132 16.8357 20.0132 17.0472V33.3648C20.0132 33.5763 19.8294 33.8147 19.6048 33.8946L14.4085 35.743C14.1837 35.8229 14.0001 35.7153 14.0001 35.5037V19.1861H14Z" fill="#A6BCD0"/>
</g>
<defs>
<clipPath id="clip0_701_5">
<rect width="19.6489" height="19.6489" fill="white" transform="translate(33.6489 36.0999) rotate(-180)"/>
</clipPath>
</defs>
</svg>
