<svg width="14" height="16" viewBox="0 0 14 16" fill="none" xmlns="http://www.w3.org/2000/svg">
<path d="M11.1152 0.43155C10.9612 0.16536 10.6746 0 10.3673 0H7.15552V3.79911H13.0629L11.1152 0.43155Z" fill="#515457"/>
<path d="M6.25509 0H3.01299C2.70507 0 2.41848 0.16566 2.26452 0.43245L0.323975 3.79911H6.25506V0H6.25509Z" fill="#515457"/>
<path fill-rule="evenodd" clip-rule="evenodd" d="M0.00170898 14.3015V4.69946H13.3783V14.3015C13.3783 14.8852 12.9032 15.36 12.3195 15.36H1.0605C0.476789 15.36 0.00170898 14.8852 0.00170898 14.3015ZM6.40518 11.0657L8.73345 8.73746C8.90934 8.5616 8.90934 8.27678 8.73348 8.10092C8.55792 7.92506 8.2728 7.92506 8.09694 8.10092L6.08679 10.1111L5.31399 9.33797C5.13813 9.16211 4.85301 9.16211 4.67715 9.33797C4.50159 9.51383 4.50159 9.79895 4.67715 9.97451L5.76864 11.0657C5.85627 11.1537 5.97153 11.1978 6.08676 11.1978C6.20199 11.1978 6.31725 11.1537 6.40518 11.0657Z" fill="#515457"/>
</svg>
