<svg width="22" height="22" viewBox="0 0 22 22" fill="none" xmlns="http://www.w3.org/2000/svg">
<path d="M22 11C22 4.9348 17.0652 0 11 0C4.9348 0 0 4.9348 0 11C0 14.2036 1.3776 17.0912 3.5704 19.1032L3.56 19.1124L3.9168 19.4132C3.94 19.4328 3.9652 19.4488 3.9884 19.468C4.178 19.6252 4.3744 19.7744 4.5744 19.9188C4.6392 19.9656 4.704 20.0124 4.77 20.058C4.9836 20.2052 5.2028 20.3448 5.4268 20.4772C5.4756 20.506 5.5248 20.534 5.574 20.562C5.8192 20.7016 6.0696 20.8332 6.326 20.954C6.3448 20.9628 6.364 20.9708 6.3828 20.9796C7.2184 21.368 8.1104 21.6532 9.0432 21.8216C9.0676 21.826 9.092 21.8304 9.1168 21.8348C9.4064 21.8848 9.6992 21.9248 9.9956 21.9516C10.0316 21.9548 10.0676 21.9568 10.104 21.96C10.3992 21.9844 10.6976 22 11 22C11.2996 22 11.5952 21.9844 11.8888 21.9608C11.926 21.9576 11.9632 21.9556 12.0004 21.9524C12.2944 21.9256 12.5848 21.8868 12.8716 21.8376C12.8964 21.8332 12.9216 21.8288 12.9464 21.824C13.8652 21.6592 14.7444 21.3804 15.5692 21.002C15.5996 20.988 15.6304 20.9748 15.6608 20.9604C15.9076 20.8444 16.1488 20.7192 16.3852 20.586C16.444 20.5528 16.5024 20.5192 16.5608 20.4848C16.776 20.358 16.9876 20.2256 17.1932 20.0848C17.2672 20.0344 17.3396 19.9812 17.4128 19.9284C17.5884 19.802 17.7608 19.6716 17.9284 19.5352C17.9656 19.5052 18.0056 19.4792 18.042 19.4484L18.408 19.1428L18.3972 19.1336C20.6092 17.1208 22 14.22 22 11ZM0.8 11C0.8 5.3756 5.3756 0.8 11 0.8C16.6244 0.8 21.2 5.3756 21.2 11C21.2 14.0308 19.87 16.7556 17.7644 18.6252C17.6468 18.544 17.5284 18.4712 17.4072 18.4104L14.0204 16.7172C13.7164 16.5652 13.5276 16.2596 13.5276 15.92V14.7372C13.606 14.6404 13.6888 14.5308 13.7744 14.4104C14.2128 13.7912 14.5644 13.1024 14.8208 12.3612C15.3276 12.1204 15.6548 11.6156 15.6548 11.0456V9.6276C15.6548 9.2808 15.5276 8.9444 15.3 8.68V6.8132C15.3208 6.6052 15.3944 5.434 14.5468 4.4676C13.8096 3.626 12.6164 3.2 11 3.2C9.3836 3.2 8.1904 3.626 7.4532 4.4672C6.6056 5.4336 6.6792 6.6056 6.7 6.8128V8.6796C6.4728 8.944 6.3452 9.2804 6.3452 9.6272V11.0452C6.3452 11.4856 6.5428 11.8964 6.8812 12.1736C7.2052 13.4428 7.872 14.4036 8.1184 14.7292V15.8868C8.1184 16.2132 7.9404 16.5132 7.6536 16.67L4.4908 18.3952C4.39 18.45 4.29 18.514 4.19 18.5856C2.1104 16.7168 0.8 14.0088 0.8 11Z" fill="#054BEB"/>
<path d="M22 11C22 4.9348 17.0652 0 11 0C4.9348 0 0 4.9348 0 11C0 14.2036 1.3776 17.0912 3.5704 19.1032L3.56 19.1124L3.9168 19.4132C3.94 19.4328 3.9652 19.4488 3.9884 19.468C4.178 19.6252 4.3744 19.7744 4.5744 19.9188C4.6392 19.9656 4.704 20.0124 4.77 20.058C4.9836 20.2052 5.2028 20.3448 5.4268 20.4772C5.4756 20.506 5.5248 20.534 5.574 20.562C5.8192 20.7016 6.0696 20.8332 6.326 20.954C6.3448 20.9628 6.364 20.9708 6.3828 20.9796C7.2184 21.368 8.1104 21.6532 9.0432 21.8216C9.0676 21.826 9.092 21.8304 9.1168 21.8348C9.4064 21.8848 9.6992 21.9248 9.9956 21.9516C10.0316 21.9548 10.0676 21.9568 10.104 21.96C10.3992 21.9844 10.6976 22 11 22C11.2996 22 11.5952 21.9844 11.8888 21.9608C11.926 21.9576 11.9632 21.9556 12.0004 21.9524C12.2944 21.9256 12.5848 21.8868 12.8716 21.8376C12.8964 21.8332 12.9216 21.8288 12.9464 21.824C13.8652 21.6592 14.7444 21.3804 15.5692 21.002C15.5996 20.988 15.6304 20.9748 15.6608 20.9604C15.9076 20.8444 16.1488 20.7192 16.3852 20.586C16.444 20.5528 16.5024 20.5192 16.5608 20.4848C16.776 20.358 16.9876 20.2256 17.1932 20.0848C17.2672 20.0344 17.3396 19.9812 17.4128 19.9284C17.5884 19.802 17.7608 19.6716 17.9284 19.5352C17.9656 19.5052 18.0056 19.4792 18.042 19.4484L18.408 19.1428L18.3972 19.1336C20.6092 17.1208 22 14.22 22 11ZM0.8 11C0.8 5.3756 5.3756 0.8 11 0.8C16.6244 0.8 21.2 5.3756 21.2 11C21.2 14.0308 19.87 16.7556 17.7644 18.6252C17.6468 18.544 17.5284 18.4712 17.4072 18.4104L14.0204 16.7172C13.7164 16.5652 13.5276 16.2596 13.5276 15.92V14.7372C13.606 14.6404 13.6888 14.5308 13.7744 14.4104C14.2128 13.7912 14.5644 13.1024 14.8208 12.3612C15.3276 12.1204 15.6548 11.6156 15.6548 11.0456V9.6276C15.6548 9.2808 15.5276 8.9444 15.3 8.68V6.8132C15.3208 6.6052 15.3944 5.434 14.5468 4.4676C13.8096 3.626 12.6164 3.2 11 3.2C9.3836 3.2 8.1904 3.626 7.4532 4.4672C6.6056 5.4336 6.6792 6.6056 6.7 6.8128V8.6796C6.4728 8.944 6.3452 9.2804 6.3452 9.6272V11.0452C6.3452 11.4856 6.5428 11.8964 6.8812 12.1736C7.2052 13.4428 7.872 14.4036 8.1184 14.7292V15.8868C8.1184 16.2132 7.9404 16.5132 7.6536 16.67L4.4908 18.3952C4.39 18.45 4.29 18.514 4.19 18.5856C2.1104 16.7168 0.8 14.0088 0.8 11Z" fill="#515457"/>
</svg>
