<svg width="48" height="48" viewBox="0 0 48 48" fill="none" xmlns="http://www.w3.org/2000/svg">
<rect opacity="0.163222" width="47.8556" height="47.8556" rx="4.78556" fill="#FFB200"/>
<path d="M30.5385 27.9543C28.6508 26.4024 26.6183 25.3775 26.2014 25.1748C26.1551 25.1517 26.1261 25.1053 26.1261 25.0532V22.1174C26.4967 21.8684 26.7399 21.4515 26.7399 20.9767V17.9309C26.7399 16.4137 25.5123 15.1862 23.9952 15.1862H23.6709H23.3409C21.8237 15.1862 20.5961 16.4137 20.5961 17.9309V20.9767C20.5961 21.4515 20.8393 21.8742 21.2099 22.1174V25.0532C21.2099 25.1053 21.181 25.1517 21.1347 25.1748C20.7177 25.3775 18.6853 26.4082 16.7976 27.9543C16.4559 28.2322 16.259 28.6549 16.259 29.095V31.1796H23.6709H31.077V29.095C31.077 28.6549 30.8801 28.2322 30.5385 27.9543Z" fill="#FFB200"/>
<path d="M37.3193 25.8986C35.7385 24.5958 34.0303 23.733 33.6829 23.5651C33.6423 23.5477 33.6192 23.5072 33.6192 23.4608V20.9999C33.9261 20.7914 34.1345 20.444 34.1345 20.0386V17.485C34.1345 16.2169 33.1038 15.1862 31.8357 15.1862H31.5635H31.2914C30.0233 15.1862 28.9925 16.2169 28.9925 17.485V20.0386C28.9925 20.4382 29.1952 20.7914 29.5079 20.9999V23.4608C29.5079 23.5072 29.4847 23.5419 29.4442 23.5651C29.23 23.6693 28.4888 24.0399 27.5854 24.6189C28.4888 25.1169 29.919 25.9739 31.2682 27.0857C31.7431 27.4737 32.0557 28.0122 32.1715 28.6028H37.7884V26.8541C37.771 26.4835 37.6089 26.1303 37.3193 25.8986Z" fill="#FFB200"/>
<path d="M17.9094 23.5651C17.8689 23.5477 17.8457 23.5072 17.8457 23.4608V20.9999C18.1526 20.7914 18.3611 20.444 18.3611 20.0386V17.485C18.3611 16.2169 17.3304 15.1862 16.0622 15.1862H15.7901H15.5063C14.2382 15.1862 13.2075 16.2169 13.2075 17.485V20.0386C13.2075 20.4382 13.4102 20.7914 13.7229 20.9999V23.4608C13.7229 23.5072 13.6997 23.5419 13.6592 23.5651C13.3117 23.733 11.6035 24.5958 10.0227 25.8986C9.73897 26.1361 9.57104 26.4835 9.57104 26.8541V28.6028H15.1879C15.2979 28.0122 15.6164 27.4737 16.0912 27.0857C17.4404 25.9739 18.8706 25.1169 19.774 24.6189C18.8648 24.0399 18.1237 23.6693 17.9094 23.5651Z" fill="#FFB200"/>
</svg>
